<mxfile host="Electron" modified="2024-01-15T06:54:42.599Z" agent="Mozilla/5.0 (Windows NT 10.0; Win64; x64) AppleWebKit/537.36 (KHTML, like Gecko) draw.io/22.1.16 Chrome/120.0.6099.109 Electron/28.1.0 Safari/537.36" etag="fkoBMt_Uq5CTi5pnTMdr" version="22.1.16" type="device">
  <diagram name="Page-1" id="XLxIXfoqBBUXvLyNZZXf">
    <mxGraphModel dx="1036" dy="654" grid="1" gridSize="10" guides="1" tooltips="1" connect="1" arrows="1" fold="1" page="1" pageScale="1" pageWidth="827" pageHeight="1169" math="0" shadow="0">
      <root>
        <mxCell id="0" />
        <mxCell id="1" parent="0" />
        <mxCell id="-8HWN1AUEytgHQln095R-3" value="&lt;font face=&quot;Architects Daughter&quot;&gt;&lt;b&gt;DB&lt;/b&gt;&lt;/font&gt;" style="shape=datastore;whiteSpace=wrap;html=1;sketch=1;curveFitting=1;jiggle=2;" parent="1" vertex="1">
          <mxGeometry x="382" y="900" width="60" height="60" as="geometry" />
        </mxCell>
        <mxCell id="-8HWN1AUEytgHQln095R-9" style="rounded=1;orthogonalLoop=1;jettySize=auto;html=1;entryX=0.5;entryY=0;entryDx=0;entryDy=0;sketch=1;curveFitting=1;jiggle=2;exitX=0.5;exitY=1;exitDx=0;exitDy=0;dashed=1;" parent="1" source="-8HWN1AUEytgHQln095R-4" target="-8HWN1AUEytgHQln095R-3" edge="1">
          <mxGeometry relative="1" as="geometry" />
        </mxCell>
        <mxCell id="-8HWN1AUEytgHQln095R-4" value="Container (Single instance)" style="swimlane;sketch=1;curveFitting=1;jiggle=2;fontFamily=Architects Daughter;startSize=23;fontSource=https%3A%2F%2Ffonts.googleapis.com%2Fcss%3Ffamily%3DArchitects%2BDaughter;" parent="1" vertex="1">
          <mxGeometry x="64" y="480" width="206" height="340" as="geometry" />
        </mxCell>
        <mxCell id="-8HWN1AUEytgHQln095R-20" value="&lt;font data-font-src=&quot;https://fonts.googleapis.com/css?family=Architects+Daughter&quot; face=&quot;Architects Daughter&quot;&gt;&lt;b&gt;MVC&lt;/b&gt;&lt;/font&gt;" style="swimlane;fontStyle=0;childLayout=stackLayout;horizontal=1;startSize=26;fillColor=none;horizontalStack=0;resizeParent=1;resizeParentMax=0;resizeLast=0;collapsible=1;marginBottom=0;html=1;sketch=1;curveFitting=1;jiggle=2;" parent="-8HWN1AUEytgHQln095R-4" vertex="1">
          <mxGeometry x="30" y="40" width="140" height="104" as="geometry" />
        </mxCell>
        <mxCell id="-8HWN1AUEytgHQln095R-21" value="&lt;font data-font-src=&quot;https://fonts.googleapis.com/css?family=Architects+Daughter&quot; face=&quot;Architects Daughter&quot;&gt;View&lt;/font&gt;" style="text;strokeColor=none;fillColor=none;align=left;verticalAlign=top;spacingLeft=4;spacingRight=4;overflow=hidden;rotatable=0;points=[[0,0.5],[1,0.5]];portConstraint=eastwest;whiteSpace=wrap;html=1;" parent="-8HWN1AUEytgHQln095R-20" vertex="1">
          <mxGeometry y="26" width="140" height="26" as="geometry" />
        </mxCell>
        <mxCell id="-8HWN1AUEytgHQln095R-22" value="&lt;font data-font-src=&quot;https://fonts.googleapis.com/css?family=Architects+Daughter&quot; face=&quot;Architects Daughter&quot;&gt;Controler&lt;/font&gt;" style="text;strokeColor=none;fillColor=none;align=left;verticalAlign=top;spacingLeft=4;spacingRight=4;overflow=hidden;rotatable=0;points=[[0,0.5],[1,0.5]];portConstraint=eastwest;whiteSpace=wrap;html=1;" parent="-8HWN1AUEytgHQln095R-20" vertex="1">
          <mxGeometry y="52" width="140" height="26" as="geometry" />
        </mxCell>
        <mxCell id="-8HWN1AUEytgHQln095R-23" value="&lt;font face=&quot;Architects Daughter&quot;&gt;Model&lt;/font&gt;" style="text;strokeColor=none;fillColor=none;align=left;verticalAlign=top;spacingLeft=4;spacingRight=4;overflow=hidden;rotatable=0;points=[[0,0.5],[1,0.5]];portConstraint=eastwest;whiteSpace=wrap;html=1;" parent="-8HWN1AUEytgHQln095R-20" vertex="1">
          <mxGeometry y="78" width="140" height="26" as="geometry" />
        </mxCell>
        <mxCell id="-8HWN1AUEytgHQln095R-24" value="" style="edgeStyle=orthogonalEdgeStyle;sourcePerimeterSpacing=0;targetPerimeterSpacing=0;startArrow=none;endArrow=none;rounded=0;targetPortConstraint=eastwest;sourcePortConstraint=northsouth;curved=0;rounded=0;" parent="-8HWN1AUEytgHQln095R-4" target="-8HWN1AUEytgHQln095R-26" edge="1">
          <mxGeometry relative="1" as="geometry">
            <mxPoint x="100" y="144" as="sourcePoint" />
          </mxGeometry>
        </mxCell>
        <mxCell id="-8HWN1AUEytgHQln095R-25" value="" style="edgeStyle=orthogonalEdgeStyle;sourcePerimeterSpacing=0;targetPerimeterSpacing=0;startArrow=none;endArrow=none;rounded=0;targetPortConstraint=eastwest;sourcePortConstraint=northsouth;curved=0;rounded=0;" parent="-8HWN1AUEytgHQln095R-4" target="-8HWN1AUEytgHQln095R-27" edge="1">
          <mxGeometry relative="1" as="geometry">
            <mxPoint x="100" y="144" as="sourcePoint" />
          </mxGeometry>
        </mxCell>
        <mxCell id="-8HWN1AUEytgHQln095R-26" value="&lt;font face=&quot;Architects Daughter&quot;&gt;Shared libraries (models, classes and methods)&lt;/font&gt;" style="whiteSpace=wrap;html=1;align=center;verticalAlign=middle;treeFolding=1;treeMoving=1;" parent="-8HWN1AUEytgHQln095R-4" vertex="1">
          <mxGeometry x="10" y="160" width="80" height="80" as="geometry" />
        </mxCell>
        <mxCell id="-8HWN1AUEytgHQln095R-27" value="&lt;font data-font-src=&quot;https://fonts.googleapis.com/css?family=Architects+Daughter&quot; face=&quot;Architects Daughter&quot;&gt;DB Schema&lt;/font&gt;" style="whiteSpace=wrap;html=1;align=center;verticalAlign=middle;treeFolding=1;treeMoving=1;" parent="-8HWN1AUEytgHQln095R-4" vertex="1">
          <mxGeometry x="110" y="160" width="80" height="80" as="geometry" />
        </mxCell>
        <mxCell id="Fd2lVsddmoylvbK8eu5D-63" value="" style="strokeWidth=1;shadow=0;dashed=0;align=center;html=1;shape=mxgraph.mockup.text.rrect;rSize=0;strokeColor=#666666;sketch=1;curveFitting=1;jiggle=2;fontSize=9;labelBorderColor=default;fontFamily=Comic Sans MS;" parent="-8HWN1AUEytgHQln095R-4" vertex="1">
          <mxGeometry x="66" y="70" width="160" height="20" as="geometry" />
        </mxCell>
        <mxCell id="Fd2lVsddmoylvbK8eu5D-64" value="&lt;font data-font-src=&quot;https://fonts.googleapis.com/css?family=Architects+Daughter&quot; face=&quot;Architects Daughter&quot; style=&quot;font-size: 9px;&quot;&gt;Products&lt;/font&gt;" style="strokeColor=inherit;fillColor=inherit;gradientColor=inherit;strokeWidth=1;shadow=0;dashed=0;align=center;html=1;shape=mxgraph.mockup.text.rrect;rSize=0;fontSize=17;fontColor=#0000ff;whiteSpace=wrap;" parent="Fd2lVsddmoylvbK8eu5D-63" vertex="1">
          <mxGeometry x="40" width="40" height="20" as="geometry" />
        </mxCell>
        <mxCell id="Fd2lVsddmoylvbK8eu5D-65" value="&lt;font data-font-src=&quot;https://fonts.googleapis.com/css?family=Architects+Daughter&quot; face=&quot;Architects Daughter&quot; style=&quot;font-size: 9px;&quot;&gt;Orders&lt;/font&gt;" style="strokeColor=inherit;fillColor=inherit;gradientColor=inherit;strokeWidth=1;shadow=0;dashed=0;align=center;html=1;shape=mxgraph.mockup.text.rrect;rSize=0;fontSize=17;fontColor=#0000ff;whiteSpace=wrap;" parent="Fd2lVsddmoylvbK8eu5D-63" vertex="1">
          <mxGeometry x="80" width="40" height="20" as="geometry" />
        </mxCell>
        <mxCell id="Fd2lVsddmoylvbK8eu5D-67" value="&lt;font face=&quot;Architects Daughter&quot; style=&quot;font-size: 9px;&quot;&gt;Accounts&lt;/font&gt;" style="strokeWidth=1;shadow=0;dashed=0;align=center;html=1;shape=mxgraph.mockup.text.rrect;rSize=0;fontSize=17;fontColor=#ffffff;fillColor=#008cff;strokeColor=#008cff;whiteSpace=wrap;" parent="Fd2lVsddmoylvbK8eu5D-63" vertex="1">
          <mxGeometry width="40" height="20" as="geometry" />
        </mxCell>
        <mxCell id="Fd2lVsddmoylvbK8eu5D-91" value="&lt;font data-font-src=&quot;https://fonts.googleapis.com/css?family=Architects+Daughter&quot; face=&quot;Architects Daughter&quot;&gt;&lt;b&gt;Services&lt;/b&gt;&lt;/font&gt;" style="swimlane;fontStyle=0;childLayout=stackLayout;horizontal=1;startSize=26;fillColor=none;horizontalStack=0;resizeParent=1;resizeParentMax=0;resizeLast=0;collapsible=1;marginBottom=0;html=1;sketch=1;curveFitting=1;jiggle=2;" parent="-8HWN1AUEytgHQln095R-4" vertex="1">
          <mxGeometry x="33" y="260" width="140" height="52" as="geometry" />
        </mxCell>
        <mxCell id="Fd2lVsddmoylvbK8eu5D-92" value="&lt;font data-font-src=&quot;https://fonts.googleapis.com/css?family=Architects+Daughter&quot; face=&quot;Architects Daughter&quot;&gt;accounts&lt;/font&gt;" style="text;strokeColor=none;fillColor=none;align=left;verticalAlign=top;spacingLeft=4;spacingRight=4;overflow=hidden;rotatable=0;points=[[0,0.5],[1,0.5]];portConstraint=eastwest;whiteSpace=wrap;html=1;" parent="Fd2lVsddmoylvbK8eu5D-91" vertex="1">
          <mxGeometry y="26" width="140" height="26" as="geometry" />
        </mxCell>
        <mxCell id="Fd2lVsddmoylvbK8eu5D-1" value="Container (Single instance)" style="swimlane;sketch=1;curveFitting=1;jiggle=2;fontFamily=Architects Daughter;fontSource=https%3A%2F%2Ffonts.googleapis.com%2Fcss%3Ffamily%3DArchitects%2BDaughter;" parent="1" vertex="1">
          <mxGeometry x="314" y="480" width="196" height="340" as="geometry" />
        </mxCell>
        <mxCell id="Fd2lVsddmoylvbK8eu5D-2" value="&lt;font data-font-src=&quot;https://fonts.googleapis.com/css?family=Architects+Daughter&quot; face=&quot;Architects Daughter&quot;&gt;&lt;b&gt;Services&lt;/b&gt;&lt;/font&gt;" style="swimlane;fontStyle=0;childLayout=stackLayout;horizontal=1;startSize=26;fillColor=none;horizontalStack=0;resizeParent=1;resizeParentMax=0;resizeLast=0;collapsible=1;marginBottom=0;html=1;sketch=1;curveFitting=1;jiggle=2;" parent="Fd2lVsddmoylvbK8eu5D-1" vertex="1">
          <mxGeometry x="30" y="260" width="140" height="52" as="geometry" />
        </mxCell>
        <mxCell id="Fd2lVsddmoylvbK8eu5D-4" value="&lt;font data-font-src=&quot;https://fonts.googleapis.com/css?family=Architects+Daughter&quot; face=&quot;Architects Daughter&quot;&gt;products&lt;/font&gt;" style="text;strokeColor=none;fillColor=none;align=left;verticalAlign=top;spacingLeft=4;spacingRight=4;overflow=hidden;rotatable=0;points=[[0,0.5],[1,0.5]];portConstraint=eastwest;whiteSpace=wrap;html=1;" parent="Fd2lVsddmoylvbK8eu5D-2" vertex="1">
          <mxGeometry y="26" width="140" height="26" as="geometry" />
        </mxCell>
        <mxCell id="Fd2lVsddmoylvbK8eu5D-6" value="&lt;font data-font-src=&quot;https://fonts.googleapis.com/css?family=Architects+Daughter&quot; face=&quot;Architects Daughter&quot;&gt;&lt;b&gt;MVC&lt;/b&gt;&lt;/font&gt;" style="swimlane;fontStyle=0;childLayout=stackLayout;horizontal=1;startSize=26;fillColor=none;horizontalStack=0;resizeParent=1;resizeParentMax=0;resizeLast=0;collapsible=1;marginBottom=0;html=1;sketch=1;curveFitting=1;jiggle=2;" parent="Fd2lVsddmoylvbK8eu5D-1" vertex="1">
          <mxGeometry x="30" y="40" width="140" height="104" as="geometry" />
        </mxCell>
        <mxCell id="Fd2lVsddmoylvbK8eu5D-7" value="&lt;font data-font-src=&quot;https://fonts.googleapis.com/css?family=Architects+Daughter&quot; face=&quot;Architects Daughter&quot;&gt;View&lt;/font&gt;" style="text;strokeColor=none;fillColor=none;align=left;verticalAlign=top;spacingLeft=4;spacingRight=4;overflow=hidden;rotatable=0;points=[[0,0.5],[1,0.5]];portConstraint=eastwest;whiteSpace=wrap;html=1;" parent="Fd2lVsddmoylvbK8eu5D-6" vertex="1">
          <mxGeometry y="26" width="140" height="26" as="geometry" />
        </mxCell>
        <mxCell id="Fd2lVsddmoylvbK8eu5D-8" value="&lt;font data-font-src=&quot;https://fonts.googleapis.com/css?family=Architects+Daughter&quot; face=&quot;Architects Daughter&quot;&gt;Controler&lt;/font&gt;" style="text;strokeColor=none;fillColor=none;align=left;verticalAlign=top;spacingLeft=4;spacingRight=4;overflow=hidden;rotatable=0;points=[[0,0.5],[1,0.5]];portConstraint=eastwest;whiteSpace=wrap;html=1;" parent="Fd2lVsddmoylvbK8eu5D-6" vertex="1">
          <mxGeometry y="52" width="140" height="26" as="geometry" />
        </mxCell>
        <mxCell id="Fd2lVsddmoylvbK8eu5D-9" value="&lt;font data-font-src=&quot;https://fonts.googleapis.com/css?family=Architects+Daughter&quot; face=&quot;Architects Daughter&quot;&gt;Model&lt;/font&gt;" style="text;strokeColor=none;fillColor=none;align=left;verticalAlign=top;spacingLeft=4;spacingRight=4;overflow=hidden;rotatable=0;points=[[0,0.5],[1,0.5]];portConstraint=eastwest;whiteSpace=wrap;html=1;" parent="Fd2lVsddmoylvbK8eu5D-6" vertex="1">
          <mxGeometry y="78" width="140" height="26" as="geometry" />
        </mxCell>
        <mxCell id="Fd2lVsddmoylvbK8eu5D-68" value="" style="strokeWidth=1;shadow=0;dashed=0;align=center;html=1;shape=mxgraph.mockup.text.rrect;rSize=0;sketch=1;curveFitting=1;jiggle=2;fontSize=9;labelBorderColor=default;fontFamily=Comic Sans MS;" parent="Fd2lVsddmoylvbK8eu5D-1" vertex="1">
          <mxGeometry x="67" y="70" width="140" height="20" as="geometry" />
        </mxCell>
        <mxCell id="Fd2lVsddmoylvbK8eu5D-69" value="&lt;font data-font-src=&quot;https://fonts.googleapis.com/css?family=Architects+Daughter&quot; face=&quot;Architects Daughter&quot; style=&quot;font-size: 9px;&quot;&gt;Products&lt;/font&gt;" style="strokeColor=inherit;fillColor=inherit;gradientColor=inherit;strokeWidth=1;shadow=0;dashed=0;align=center;html=1;shape=mxgraph.mockup.text.rrect;rSize=0;fontSize=17;fontColor=#0000ff;whiteSpace=wrap;" parent="Fd2lVsddmoylvbK8eu5D-68" vertex="1">
          <mxGeometry x="40" width="40" height="20" as="geometry" />
        </mxCell>
        <mxCell id="Fd2lVsddmoylvbK8eu5D-70" value="&lt;font data-font-src=&quot;https://fonts.googleapis.com/css?family=Architects+Daughter&quot; face=&quot;Architects Daughter&quot; style=&quot;font-size: 9px;&quot;&gt;Orders&lt;/font&gt;" style="strokeColor=inherit;fillColor=inherit;gradientColor=inherit;strokeWidth=1;shadow=0;dashed=0;align=center;html=1;shape=mxgraph.mockup.text.rrect;rSize=0;fontSize=17;fontColor=#0000ff;whiteSpace=wrap;" parent="Fd2lVsddmoylvbK8eu5D-68" vertex="1">
          <mxGeometry x="80" width="40" height="20" as="geometry" />
        </mxCell>
        <mxCell id="Fd2lVsddmoylvbK8eu5D-71" value="&lt;font face=&quot;Architects Daughter&quot; style=&quot;font-size: 9px;&quot;&gt;Accounts&lt;/font&gt;" style="strokeWidth=1;shadow=0;dashed=0;align=center;html=1;shape=mxgraph.mockup.text.rrect;rSize=0;fontSize=17;fontColor=#ffffff;fillColor=#008cff;strokeColor=#008cff;whiteSpace=wrap;" parent="Fd2lVsddmoylvbK8eu5D-68" vertex="1">
          <mxGeometry width="40" height="20" as="geometry" />
        </mxCell>
        <mxCell id="_Wbw5xlkFAFi5QeXs8VF-7" value="" style="edgeStyle=orthogonalEdgeStyle;sourcePerimeterSpacing=0;targetPerimeterSpacing=0;startArrow=none;endArrow=none;rounded=0;targetPortConstraint=eastwest;sourcePortConstraint=northsouth;curved=0;rounded=0;" parent="Fd2lVsddmoylvbK8eu5D-1" target="_Wbw5xlkFAFi5QeXs8VF-9" edge="1">
          <mxGeometry relative="1" as="geometry">
            <mxPoint x="98" y="144" as="sourcePoint" />
          </mxGeometry>
        </mxCell>
        <mxCell id="_Wbw5xlkFAFi5QeXs8VF-8" value="" style="edgeStyle=orthogonalEdgeStyle;sourcePerimeterSpacing=0;targetPerimeterSpacing=0;startArrow=none;endArrow=none;rounded=0;targetPortConstraint=eastwest;sourcePortConstraint=northsouth;curved=0;rounded=0;" parent="Fd2lVsddmoylvbK8eu5D-1" target="_Wbw5xlkFAFi5QeXs8VF-10" edge="1">
          <mxGeometry relative="1" as="geometry">
            <mxPoint x="98" y="144" as="sourcePoint" />
          </mxGeometry>
        </mxCell>
        <mxCell id="_Wbw5xlkFAFi5QeXs8VF-9" value="&lt;font face=&quot;Architects Daughter&quot;&gt;Shared libraries (models, classes and methods)&lt;/font&gt;" style="whiteSpace=wrap;html=1;align=center;verticalAlign=middle;treeFolding=1;treeMoving=1;" parent="Fd2lVsddmoylvbK8eu5D-1" vertex="1">
          <mxGeometry x="8" y="160" width="80" height="80" as="geometry" />
        </mxCell>
        <mxCell id="_Wbw5xlkFAFi5QeXs8VF-10" value="&lt;font data-font-src=&quot;https://fonts.googleapis.com/css?family=Architects+Daughter&quot; face=&quot;Architects Daughter&quot;&gt;DB Schema&lt;/font&gt;" style="whiteSpace=wrap;html=1;align=center;verticalAlign=middle;treeFolding=1;treeMoving=1;" parent="Fd2lVsddmoylvbK8eu5D-1" vertex="1">
          <mxGeometry x="108" y="160" width="80" height="80" as="geometry" />
        </mxCell>
        <mxCell id="Fd2lVsddmoylvbK8eu5D-14" value="Container (Single instance)" style="swimlane;sketch=1;curveFitting=1;jiggle=2;fontFamily=Architects Daughter;fontSource=https%3A%2F%2Ffonts.googleapis.com%2Fcss%3Ffamily%3DArchitects%2BDaughter;" parent="1" vertex="1">
          <mxGeometry x="554" y="480" width="196" height="340" as="geometry" />
        </mxCell>
        <mxCell id="Fd2lVsddmoylvbK8eu5D-15" value="&lt;font data-font-src=&quot;https://fonts.googleapis.com/css?family=Architects+Daughter&quot; face=&quot;Architects Daughter&quot;&gt;&lt;b&gt;Services&lt;/b&gt;&lt;/font&gt;" style="swimlane;fontStyle=0;childLayout=stackLayout;horizontal=1;startSize=26;fillColor=none;horizontalStack=0;resizeParent=1;resizeParentMax=0;resizeLast=0;collapsible=1;marginBottom=0;html=1;sketch=1;curveFitting=1;jiggle=2;" parent="Fd2lVsddmoylvbK8eu5D-14" vertex="1">
          <mxGeometry x="30" y="260" width="140" height="52" as="geometry" />
        </mxCell>
        <mxCell id="Fd2lVsddmoylvbK8eu5D-18" value="&lt;font data-font-src=&quot;https://fonts.googleapis.com/css?family=Architects+Daughter&quot; face=&quot;Architects Daughter&quot;&gt;orders&lt;/font&gt;" style="text;strokeColor=none;fillColor=none;align=left;verticalAlign=top;spacingLeft=4;spacingRight=4;overflow=hidden;rotatable=0;points=[[0,0.5],[1,0.5]];portConstraint=eastwest;whiteSpace=wrap;html=1;" parent="Fd2lVsddmoylvbK8eu5D-15" vertex="1">
          <mxGeometry y="26" width="140" height="26" as="geometry" />
        </mxCell>
        <mxCell id="Fd2lVsddmoylvbK8eu5D-80" value="&lt;font data-font-src=&quot;https://fonts.googleapis.com/css?family=Architects+Daughter&quot; face=&quot;Architects Daughter&quot;&gt;&lt;b&gt;MVC&lt;/b&gt;&lt;/font&gt;" style="swimlane;fontStyle=0;childLayout=stackLayout;horizontal=1;startSize=26;fillColor=none;horizontalStack=0;resizeParent=1;resizeParentMax=0;resizeLast=0;collapsible=1;marginBottom=0;html=1;sketch=1;curveFitting=1;jiggle=2;" parent="Fd2lVsddmoylvbK8eu5D-14" vertex="1">
          <mxGeometry x="30" y="40" width="140" height="104" as="geometry" />
        </mxCell>
        <mxCell id="Fd2lVsddmoylvbK8eu5D-81" value="&lt;font face=&quot;Architects Daughter&quot;&gt;View&lt;/font&gt;" style="text;strokeColor=none;fillColor=none;align=left;verticalAlign=top;spacingLeft=4;spacingRight=4;overflow=hidden;rotatable=0;points=[[0,0.5],[1,0.5]];portConstraint=eastwest;whiteSpace=wrap;html=1;" parent="Fd2lVsddmoylvbK8eu5D-80" vertex="1">
          <mxGeometry y="26" width="140" height="26" as="geometry" />
        </mxCell>
        <mxCell id="Fd2lVsddmoylvbK8eu5D-82" value="&lt;font data-font-src=&quot;https://fonts.googleapis.com/css?family=Architects+Daughter&quot; face=&quot;Architects Daughter&quot;&gt;Controler&lt;/font&gt;" style="text;strokeColor=none;fillColor=none;align=left;verticalAlign=top;spacingLeft=4;spacingRight=4;overflow=hidden;rotatable=0;points=[[0,0.5],[1,0.5]];portConstraint=eastwest;whiteSpace=wrap;html=1;" parent="Fd2lVsddmoylvbK8eu5D-80" vertex="1">
          <mxGeometry y="52" width="140" height="26" as="geometry" />
        </mxCell>
        <mxCell id="Fd2lVsddmoylvbK8eu5D-83" value="&lt;font data-font-src=&quot;https://fonts.googleapis.com/css?family=Architects+Daughter&quot; face=&quot;Architects Daughter&quot;&gt;Model&lt;/font&gt;" style="text;strokeColor=none;fillColor=none;align=left;verticalAlign=top;spacingLeft=4;spacingRight=4;overflow=hidden;rotatable=0;points=[[0,0.5],[1,0.5]];portConstraint=eastwest;whiteSpace=wrap;html=1;" parent="Fd2lVsddmoylvbK8eu5D-80" vertex="1">
          <mxGeometry y="78" width="140" height="26" as="geometry" />
        </mxCell>
        <mxCell id="Fd2lVsddmoylvbK8eu5D-84" value="" style="strokeWidth=1;shadow=0;dashed=0;align=center;html=1;shape=mxgraph.mockup.text.rrect;rSize=0;strokeColor=#666666;sketch=1;curveFitting=1;jiggle=2;fontSize=9;labelBorderColor=default;fontFamily=Comic Sans MS;" parent="Fd2lVsddmoylvbK8eu5D-14" vertex="1">
          <mxGeometry x="66" y="70" width="140" height="20" as="geometry" />
        </mxCell>
        <mxCell id="Fd2lVsddmoylvbK8eu5D-85" value="&lt;font data-font-src=&quot;https://fonts.googleapis.com/css?family=Architects+Daughter&quot; face=&quot;Architects Daughter&quot; style=&quot;font-size: 9px;&quot;&gt;Products&lt;/font&gt;" style="strokeColor=inherit;fillColor=inherit;gradientColor=inherit;strokeWidth=1;shadow=0;dashed=0;align=center;html=1;shape=mxgraph.mockup.text.rrect;rSize=0;fontSize=17;fontColor=#0000ff;whiteSpace=wrap;" parent="Fd2lVsddmoylvbK8eu5D-84" vertex="1">
          <mxGeometry x="40" width="40" height="20" as="geometry" />
        </mxCell>
        <mxCell id="Fd2lVsddmoylvbK8eu5D-86" value="&lt;font data-font-src=&quot;https://fonts.googleapis.com/css?family=Architects+Daughter&quot; face=&quot;Architects Daughter&quot; style=&quot;font-size: 9px;&quot;&gt;Orders&lt;/font&gt;" style="strokeColor=inherit;fillColor=inherit;gradientColor=inherit;strokeWidth=1;shadow=0;dashed=0;align=center;html=1;shape=mxgraph.mockup.text.rrect;rSize=0;fontSize=17;fontColor=#0000ff;whiteSpace=wrap;" parent="Fd2lVsddmoylvbK8eu5D-84" vertex="1">
          <mxGeometry x="80" width="40" height="20" as="geometry" />
        </mxCell>
        <mxCell id="Fd2lVsddmoylvbK8eu5D-87" value="&lt;font data-font-src=&quot;https://fonts.googleapis.com/css?family=Architects+Daughter&quot; face=&quot;Architects Daughter&quot; style=&quot;font-size: 9px;&quot;&gt;Accounts&lt;/font&gt;" style="strokeWidth=1;shadow=0;dashed=0;align=center;html=1;shape=mxgraph.mockup.text.rrect;rSize=0;fontSize=17;fontColor=#ffffff;fillColor=#008cff;strokeColor=#008cff;whiteSpace=wrap;" parent="Fd2lVsddmoylvbK8eu5D-84" vertex="1">
          <mxGeometry width="40" height="20" as="geometry" />
        </mxCell>
        <mxCell id="_Wbw5xlkFAFi5QeXs8VF-11" value="" style="edgeStyle=orthogonalEdgeStyle;sourcePerimeterSpacing=0;targetPerimeterSpacing=0;startArrow=none;endArrow=none;rounded=0;targetPortConstraint=eastwest;sourcePortConstraint=northsouth;curved=0;rounded=0;" parent="Fd2lVsddmoylvbK8eu5D-14" target="_Wbw5xlkFAFi5QeXs8VF-13" edge="1">
          <mxGeometry relative="1" as="geometry">
            <mxPoint x="98" y="144" as="sourcePoint" />
          </mxGeometry>
        </mxCell>
        <mxCell id="_Wbw5xlkFAFi5QeXs8VF-12" value="" style="edgeStyle=orthogonalEdgeStyle;sourcePerimeterSpacing=0;targetPerimeterSpacing=0;startArrow=none;endArrow=none;rounded=0;targetPortConstraint=eastwest;sourcePortConstraint=northsouth;curved=0;rounded=0;" parent="Fd2lVsddmoylvbK8eu5D-14" target="_Wbw5xlkFAFi5QeXs8VF-14" edge="1">
          <mxGeometry relative="1" as="geometry">
            <mxPoint x="98" y="144" as="sourcePoint" />
          </mxGeometry>
        </mxCell>
        <mxCell id="_Wbw5xlkFAFi5QeXs8VF-13" value="&lt;font face=&quot;Architects Daughter&quot;&gt;Shared libraries (models, classes and methods)&lt;/font&gt;" style="whiteSpace=wrap;html=1;align=center;verticalAlign=middle;treeFolding=1;treeMoving=1;" parent="Fd2lVsddmoylvbK8eu5D-14" vertex="1">
          <mxGeometry x="8" y="160" width="80" height="80" as="geometry" />
        </mxCell>
        <mxCell id="_Wbw5xlkFAFi5QeXs8VF-14" value="&lt;font data-font-src=&quot;https://fonts.googleapis.com/css?family=Architects+Daughter&quot; face=&quot;Architects Daughter&quot;&gt;DB Schema&lt;/font&gt;" style="whiteSpace=wrap;html=1;align=center;verticalAlign=middle;treeFolding=1;treeMoving=1;" parent="Fd2lVsddmoylvbK8eu5D-14" vertex="1">
          <mxGeometry x="108" y="160" width="80" height="80" as="geometry" />
        </mxCell>
        <mxCell id="Fd2lVsddmoylvbK8eu5D-27" style="rounded=1;orthogonalLoop=1;jettySize=auto;html=1;entryX=0.5;entryY=0;entryDx=0;entryDy=0;sketch=1;curveFitting=1;jiggle=2;exitX=0.5;exitY=1;exitDx=0;exitDy=0;dashed=1;" parent="1" source="Fd2lVsddmoylvbK8eu5D-1" target="-8HWN1AUEytgHQln095R-3" edge="1">
          <mxGeometry relative="1" as="geometry">
            <mxPoint x="184" y="870" as="sourcePoint" />
            <mxPoint x="424" y="980" as="targetPoint" />
          </mxGeometry>
        </mxCell>
        <mxCell id="Fd2lVsddmoylvbK8eu5D-29" style="rounded=1;orthogonalLoop=1;jettySize=auto;html=1;sketch=1;curveFitting=1;jiggle=2;exitX=0.5;exitY=1;exitDx=0;exitDy=0;dashed=1;entryX=0.5;entryY=0;entryDx=0;entryDy=0;" parent="1" source="Fd2lVsddmoylvbK8eu5D-14" target="-8HWN1AUEytgHQln095R-3" edge="1">
          <mxGeometry relative="1" as="geometry">
            <mxPoint x="184" y="870" as="sourcePoint" />
            <mxPoint x="414" y="970" as="targetPoint" />
          </mxGeometry>
        </mxCell>
        <mxCell id="Fd2lVsddmoylvbK8eu5D-47" value="&lt;font data-font-src=&quot;https://fonts.googleapis.com/css?family=Architects+Daughter&quot; face=&quot;Architects Daughter&quot;&gt;API Gatway&lt;/font&gt;" style="swimlane;childLayout=stackLayout;resizeParent=1;resizeParentMax=0;startSize=20;html=1;" parent="1" vertex="1">
          <mxGeometry x="234" y="340" width="360" height="90" as="geometry" />
        </mxCell>
        <mxCell id="Fd2lVsddmoylvbK8eu5D-48" value="&lt;font data-font-src=&quot;https://fonts.googleapis.com/css?family=Architects+Daughter&quot; face=&quot;Architects Daughter&quot;&gt;accounts&lt;/font&gt;" style="swimlane;startSize=20;html=1;" parent="Fd2lVsddmoylvbK8eu5D-47" vertex="1">
          <mxGeometry y="20" width="120" height="70" as="geometry" />
        </mxCell>
        <mxCell id="Fd2lVsddmoylvbK8eu5D-58" value="&lt;font data-font-src=&quot;https://fonts.googleapis.com/css?family=Architects+Daughter&quot; face=&quot;Architects Daughter&quot;&gt;accounts&lt;br&gt;HTTPRoute&lt;/font&gt;" style="text;html=1;align=center;verticalAlign=middle;resizable=0;points=[];autosize=1;strokeColor=none;fillColor=none;" parent="Fd2lVsddmoylvbK8eu5D-48" vertex="1">
          <mxGeometry x="15" y="25" width="90" height="40" as="geometry" />
        </mxCell>
        <mxCell id="Fd2lVsddmoylvbK8eu5D-49" value="&lt;font data-font-src=&quot;https://fonts.googleapis.com/css?family=Architects+Daughter&quot; face=&quot;Architects Daughter&quot;&gt;products&lt;/font&gt;" style="swimlane;startSize=20;html=1;" parent="Fd2lVsddmoylvbK8eu5D-47" vertex="1">
          <mxGeometry x="120" y="20" width="120" height="70" as="geometry" />
        </mxCell>
        <mxCell id="Fd2lVsddmoylvbK8eu5D-59" value="&lt;font data-font-src=&quot;https://fonts.googleapis.com/css?family=Architects+Daughter&quot; face=&quot;Architects Daughter&quot;&gt;products&lt;br&gt;HTTPRoute&lt;/font&gt;" style="text;html=1;align=center;verticalAlign=middle;resizable=0;points=[];autosize=1;strokeColor=none;fillColor=none;" parent="Fd2lVsddmoylvbK8eu5D-49" vertex="1">
          <mxGeometry x="15" y="25" width="90" height="40" as="geometry" />
        </mxCell>
        <mxCell id="Fd2lVsddmoylvbK8eu5D-50" value="&lt;font data-font-src=&quot;https://fonts.googleapis.com/css?family=Architects+Daughter&quot; face=&quot;Architects Daughter&quot;&gt;orders&lt;/font&gt;" style="swimlane;startSize=20;html=1;" parent="Fd2lVsddmoylvbK8eu5D-47" vertex="1">
          <mxGeometry x="240" y="20" width="120" height="70" as="geometry" />
        </mxCell>
        <mxCell id="Fd2lVsddmoylvbK8eu5D-60" value="&lt;font face=&quot;Architects Daughter&quot;&gt;orders&lt;br style=&quot;border-color: var(--border-color);&quot;&gt;HTTPRoute&lt;/font&gt;" style="text;html=1;align=center;verticalAlign=middle;resizable=0;points=[];autosize=1;strokeColor=none;fillColor=none;" parent="Fd2lVsddmoylvbK8eu5D-50" vertex="1">
          <mxGeometry x="20" y="25" width="90" height="40" as="geometry" />
        </mxCell>
        <mxCell id="Fd2lVsddmoylvbK8eu5D-51" style="rounded=1;orthogonalLoop=1;jettySize=auto;html=1;entryX=0.21;entryY=0.004;entryDx=0;entryDy=0;sketch=1;curveFitting=1;jiggle=2;exitX=0.25;exitY=1;exitDx=0;exitDy=0;dashed=1;entryPerimeter=0;" parent="1" source="Fd2lVsddmoylvbK8eu5D-48" target="-8HWN1AUEytgHQln095R-4" edge="1">
          <mxGeometry relative="1" as="geometry">
            <mxPoint x="184" y="830" as="sourcePoint" />
            <mxPoint x="424" y="910" as="targetPoint" />
          </mxGeometry>
        </mxCell>
        <mxCell id="Fd2lVsddmoylvbK8eu5D-52" style="rounded=1;orthogonalLoop=1;jettySize=auto;html=1;sketch=1;curveFitting=1;jiggle=2;dashed=1;" parent="1" edge="1">
          <mxGeometry relative="1" as="geometry">
            <mxPoint x="420" y="430" as="sourcePoint" />
            <mxPoint x="350" y="480" as="targetPoint" />
          </mxGeometry>
        </mxCell>
        <mxCell id="Fd2lVsddmoylvbK8eu5D-53" style="rounded=1;orthogonalLoop=1;jettySize=auto;html=1;entryX=0.141;entryY=-0.005;entryDx=0;entryDy=0;sketch=1;curveFitting=1;jiggle=2;dashed=1;entryPerimeter=0;" parent="1" target="Fd2lVsddmoylvbK8eu5D-14" edge="1">
          <mxGeometry relative="1" as="geometry">
            <mxPoint x="530" y="430" as="sourcePoint" />
            <mxPoint x="444" y="930" as="targetPoint" />
          </mxGeometry>
        </mxCell>
        <mxCell id="Fd2lVsddmoylvbK8eu5D-56" style="rounded=1;orthogonalLoop=1;jettySize=auto;html=1;sketch=1;curveFitting=1;jiggle=2;dashed=1;" parent="1" source="Fd2lVsddmoylvbK8eu5D-69" edge="1">
          <mxGeometry relative="1" as="geometry">
            <mxPoint x="194" y="840" as="sourcePoint" />
            <mxPoint x="420" y="430" as="targetPoint" />
          </mxGeometry>
        </mxCell>
        <mxCell id="Fd2lVsddmoylvbK8eu5D-57" style="rounded=1;orthogonalLoop=1;jettySize=auto;html=1;sketch=1;curveFitting=1;jiggle=2;exitX=0.43;exitY=0.01;exitDx=0;exitDy=0;dashed=1;exitPerimeter=0;entryX=0.769;entryY=1.07;entryDx=0;entryDy=0;entryPerimeter=0;" parent="1" source="Fd2lVsddmoylvbK8eu5D-86" edge="1" target="Fd2lVsddmoylvbK8eu5D-60">
          <mxGeometry relative="1" as="geometry">
            <mxPoint x="584" y="559" as="sourcePoint" />
            <mxPoint x="530" y="430" as="targetPoint" />
          </mxGeometry>
        </mxCell>
        <mxCell id="Fd2lVsddmoylvbK8eu5D-89" style="rounded=1;orthogonalLoop=1;jettySize=auto;html=1;sketch=1;curveFitting=1;jiggle=2;dashed=1;exitX=0.47;exitY=-0.03;exitDx=0;exitDy=0;exitPerimeter=0;" parent="1" source="Fd2lVsddmoylvbK8eu5D-67" edge="1">
          <mxGeometry relative="1" as="geometry">
            <mxPoint x="160" y="550" as="sourcePoint" />
            <mxPoint x="300" y="430" as="targetPoint" />
          </mxGeometry>
        </mxCell>
        <mxCell id="8b6cuG1sZNhqSNX32k_j-1" style="rounded=1;orthogonalLoop=1;jettySize=auto;html=1;sketch=1;curveFitting=1;jiggle=2;dashed=1;exitX=0.677;exitY=0.069;exitDx=0;exitDy=0;exitPerimeter=0;entryX=0.149;entryY=1.11;entryDx=0;entryDy=0;entryPerimeter=0;" edge="1" parent="1" source="-8HWN1AUEytgHQln095R-21" target="Fd2lVsddmoylvbK8eu5D-59">
          <mxGeometry relative="1" as="geometry">
            <mxPoint x="449" y="560" as="sourcePoint" />
            <mxPoint x="430" y="440" as="targetPoint" />
          </mxGeometry>
        </mxCell>
        <mxCell id="8b6cuG1sZNhqSNX32k_j-2" style="rounded=1;orthogonalLoop=1;jettySize=auto;html=1;sketch=1;curveFitting=1;jiggle=2;dashed=1;exitX=0.667;exitY=-0.19;exitDx=0;exitDy=0;exitPerimeter=0;entryX=0.25;entryY=1;entryDx=0;entryDy=0;" edge="1" parent="1" source="Fd2lVsddmoylvbK8eu5D-63" target="Fd2lVsddmoylvbK8eu5D-50">
          <mxGeometry relative="1" as="geometry">
            <mxPoint x="459" y="570" as="sourcePoint" />
            <mxPoint x="440" y="450" as="targetPoint" />
          </mxGeometry>
        </mxCell>
        <mxCell id="8b6cuG1sZNhqSNX32k_j-3" style="rounded=1;orthogonalLoop=1;jettySize=auto;html=1;sketch=1;curveFitting=1;jiggle=2;dashed=1;exitX=0.455;exitY=0.13;exitDx=0;exitDy=0;exitPerimeter=0;entryX=0.5;entryY=1;entryDx=0;entryDy=0;" edge="1" parent="1" source="Fd2lVsddmoylvbK8eu5D-71" target="Fd2lVsddmoylvbK8eu5D-48">
          <mxGeometry relative="1" as="geometry">
            <mxPoint x="469" y="580" as="sourcePoint" />
            <mxPoint x="450" y="460" as="targetPoint" />
          </mxGeometry>
        </mxCell>
        <mxCell id="8b6cuG1sZNhqSNX32k_j-4" style="rounded=1;orthogonalLoop=1;jettySize=auto;html=1;sketch=1;curveFitting=1;jiggle=2;dashed=1;" edge="1" parent="1">
          <mxGeometry relative="1" as="geometry">
            <mxPoint x="479" y="550" as="sourcePoint" />
            <mxPoint x="530" y="430" as="targetPoint" />
          </mxGeometry>
        </mxCell>
        <mxCell id="8b6cuG1sZNhqSNX32k_j-5" style="rounded=1;orthogonalLoop=1;jettySize=auto;html=1;sketch=1;curveFitting=1;jiggle=2;dashed=1;exitX=0.28;exitY=-0.07;exitDx=0;exitDy=0;exitPerimeter=0;entryX=0.887;entryY=1.11;entryDx=0;entryDy=0;entryPerimeter=0;" edge="1" parent="1" source="Fd2lVsddmoylvbK8eu5D-87" target="Fd2lVsddmoylvbK8eu5D-58">
          <mxGeometry relative="1" as="geometry">
            <mxPoint x="489" y="600" as="sourcePoint" />
            <mxPoint x="300" y="430" as="targetPoint" />
          </mxGeometry>
        </mxCell>
        <mxCell id="8b6cuG1sZNhqSNX32k_j-6" style="rounded=1;orthogonalLoop=1;jettySize=auto;html=1;sketch=1;curveFitting=1;jiggle=2;dashed=1;exitX=0.411;exitY=-0.03;exitDx=0;exitDy=0;exitPerimeter=0;" edge="1" parent="1" source="Fd2lVsddmoylvbK8eu5D-84">
          <mxGeometry relative="1" as="geometry">
            <mxPoint x="499" y="610" as="sourcePoint" />
            <mxPoint x="450" y="430" as="targetPoint" />
          </mxGeometry>
        </mxCell>
      </root>
    </mxGraphModel>
  </diagram>
</mxfile>
